720p as well as 1080p/720p of the rest will be up within the next few days.
-bgf


General
Format                                   : Matroska
Format version                           : Version 4 / Version 2
File size                                : 8.41 GiB
Duration                                 : 2h 10mn
Overall bit rate                         : 9 220 Kbps
Encoded date                             : UTC 2013-03-21 01:56:24
Writing application                      : mkvmerge v6.1.0 ('Old Devil') built on Mar  2 2013 22:22:31
Writing library                          : libebml v1.3.0 + libmatroska v1.4.0

Video
ID                                       : 1
Format                                   : AVC
Format/Info                              : Advanced Video Codec
Format profile                           : High@L5.0
Format settings, CABAC                   : Yes
Format settings, ReFrames                : 16 frames
Codec ID                                 : V_MPEG4/ISO/AVC
Duration                                 : 2h 10mn
Bit rate                                 : 7 448 Kbps
Width                                    : 1 920 pixels
Height                                   : 800 pixels
Display aspect ratio                     : 2.40:1
Frame rate mode                          : Constant
Frame rate                               : 23.976 fps
Color space                              : YUV
Chroma subsampling                       : 4:2:0
Bit depth                                : 8 bits
Scan type                                : Progressive
Bits/(Pixel*Frame)                       : 0.202
Stream size                              : 6.80 GiB (81%)
Writing library                          : x264 core 120
Encoding settings                        : cabac=1 / ref=16 / deblock=1:0:0 / 
Language                                 : English
Default                                  : Yes
Forced                                   : No
Color primaries                          : BT.709
Transfer characteristics                 : BT.709
Matrix coefficients                      : BT.709

Audio
ID                                       : 2
Format                                   : DTS
Format/Info                              : Digital Theater Systems
Mode                                     : 16
Format settings, Endianness              : Big
Codec ID                                 : A_DTS
Duration                                 : 2h 10mn
Bit rate mode                            : Constant
Bit rate                                 : 1 588 Kbps
Channel(s)                               : 2 channels
Channel positions                        : Front: L R
Sampling rate                            : 48.0 KHz
Bit depth                                : 16 bits
Compression mode                         : Lossy
Stream size                              : 1.45 GiB (17%)
Default                                  : Yes
Forced                                   : No